<svg width="42.000000" height="37.000000" viewBox="0 0 42 37" fill="none" xmlns="http://www.w3.org/2000/svg" xmlns:xlink="http://www.w3.org/1999/xlink">
	<desc>
			Created with Pixso.
	</desc>
	<defs/>
	<path id="Vector" d="M29.75 8.80428C29.75 12.8102 24.4197 19.949 22.0791 22.8251C21.5178 23.5955 20.4822 23.5955 19.9209 22.8251C17.5803 19.949 12.25 12.8102 12.25 8.80428C12.25 3.94212 16.1655 0 21 0C25.8345 0 29.75 3.94212 29.75 8.80428ZM21 11.1521C22.6116 11.1521 23.9167 9.83879 23.9167 8.21733C23.9167 6.59661 22.6116 5.28257 21 5.28257C19.3884 5.28257 18.0833 6.59661 18.0833 8.21733C18.0833 9.83879 19.3884 11.1521 21 11.1521ZM31.0334 13.1917C31.0698 13.1037 31.1062 13.0157 31.1428 12.9203L39.6011 9.51596C40.7532 9.05374 42 9.90482 42 11.1521L42 31.0204C42 31.7394 41.5625 32.3851 40.8989 32.6566L30.3333 36.9046L30.3333 14.7032C30.5886 14.1969 30.8218 13.698 31.0334 13.1917ZM10.9666 13.1917C11.1782 13.698 11.4114 14.1969 11.6667 14.7032L11.6667 33.1481L2.39966 36.8826C1.25049 37.2788 0 36.4938 0 35.2465L0 15.3781C0 14.6591 0.435791 13.9475 1.10034 13.742L10.0334 10.1469C10.2083 11.1888 10.5657 12.2233 10.9666 13.1917ZM23.9021 24.2925C24.9155 23.0819 26.5051 21.0056 28 18.7091L28 37L14 32.972L14 18.7091C15.4949 21.0056 17.0845 23.0819 18.0979 24.2925C19.5928 26.2368 22.4072 26.2368 23.9021 24.2925Z" fill="#009398" fill-opacity="1.000000" fill-rule="nonzero"/>
</svg>
