<svg width="19.479980" height="23.231445" viewBox="0 0 19.48 23.2314" fill="none" xmlns="http://www.w3.org/2000/svg" xmlns:xlink="http://www.w3.org/1999/xlink">
	<desc>
			Created with Pixso.
	</desc>
	<defs/>
	<path id="Path 30" d="M12.491 9.75977C13.246 9.33105 13.8742 8.71045 14.3118 7.96094C14.7493 7.21094 14.9805 6.35889 14.982 5.49072C14.9697 4.81982 14.8248 4.1582 14.5556 3.54395C14.2864 2.92969 13.8983 2.37451 13.4136 1.91064C12.929 1.44678 12.3574 1.0835 11.7316 0.841797C11.106 0.600098 10.4386 0.484375 9.76801 0.501465C9.09741 0.484375 8.43005 0.600098 7.80438 0.841797C7.17865 1.0835 6.60699 1.44678 6.12231 1.91064C5.6377 2.37451 5.24957 2.92969 4.98041 3.54395C4.71124 4.1582 4.56628 4.81982 4.55402 5.49072C4.55548 6.35889 4.78674 7.21094 5.22424 7.96094C5.66174 8.71045 6.28998 9.33105 7.04498 9.75977C5.18005 10.2695 3.53217 11.373 2.35107 12.9038C1.16998 14.4346 0.520142 16.3086 0.5 18.2417C0.5 23.1196 4.90002 22.6206 6.52502 22.7314L12.955 22.7314C16.025 22.7314 18.98 22.3984 18.98 18.2417C18.972 16.3135 18.3335 14.4409 17.1619 12.9097C15.9903 11.3779 14.3499 10.272 12.491 9.75977ZM5.71301 5.54688C5.72137 5.0249 5.83331 4.50977 6.04224 4.03125C6.25116 3.55273 6.55292 3.12061 6.93005 2.75928C7.30725 2.39844 7.75226 2.11572 8.23944 1.92822C8.72656 1.74023 9.24615 1.65137 9.76801 1.66553C10.2914 1.64355 10.814 1.72754 11.3042 1.91211C11.7944 2.09717 12.2421 2.37939 12.6204 2.74219C12.9986 3.10449 13.2996 3.54004 13.5052 4.02197C13.7109 4.50391 13.8168 5.02246 13.8168 5.54639C13.8168 6.07031 13.7109 6.58887 13.5052 7.07031C13.2996 7.55225 12.9986 7.98779 12.6204 8.3501C12.2421 8.71289 11.7944 8.99512 11.3042 9.18018C10.814 9.36523 10.2914 9.44873 9.76801 9.42676C8.7226 9.42676 7.71753 9.02295 6.96228 8.30029C6.20703 7.57764 5.75983 6.59131 5.71399 5.54688L5.71301 5.54688ZM13.013 21.6235L6.58197 21.6235C4.49701 21.5688 1.716 21.7896 1.716 18.2417C1.76947 16.1396 2.65216 14.1436 4.17151 12.6899C5.6908 11.2358 7.72345 10.4419 9.82599 10.4805C11.9285 10.4419 13.9612 11.2358 15.4805 12.6899C16.9998 14.1436 17.8825 16.1396 17.936 18.2417C17.878 21.1206 16.372 21.6206 13.012 21.6206L13.013 21.6235Z" fill="#A6A6A6" fill-opacity="1.000000" fill-rule="nonzero"/>
	<path id="Path 30" d="M14.3118 7.96094C14.7493 7.21094 14.9805 6.35889 14.982 5.49072C14.9697 4.81982 14.8248 4.1582 14.5556 3.54395C14.2864 2.92969 13.8983 2.37451 13.4136 1.91064C12.929 1.44678 12.3574 1.0835 11.7316 0.841797C11.106 0.600098 10.4386 0.484375 9.76801 0.501465C9.09741 0.484375 8.43005 0.600098 7.80438 0.841797C7.17865 1.0835 6.60699 1.44678 6.12231 1.91064C5.6377 2.37451 5.24957 2.92969 4.98041 3.54395C4.71124 4.1582 4.56628 4.81982 4.55402 5.49072C4.55548 6.35889 4.78674 7.21094 5.22424 7.96094C5.66174 8.71045 6.28998 9.33105 7.04498 9.75977C5.18005 10.2695 3.53217 11.373 2.35107 12.9038C1.16998 14.4346 0.520142 16.3086 0.5 18.2417C0.5 23.1196 4.90002 22.6206 6.52502 22.7314L12.955 22.7314C16.025 22.7314 18.98 22.3984 18.98 18.2417C18.972 16.3135 18.3335 14.4409 17.1619 12.9097C15.9903 11.3779 14.3499 10.272 12.491 9.75977C13.246 9.33105 13.8742 8.71045 14.3118 7.96094ZM6.04224 4.03125C6.25116 3.55273 6.55292 3.12061 6.93005 2.75928C7.30725 2.39844 7.75226 2.11572 8.23944 1.92822C8.72656 1.74023 9.24615 1.65137 9.76801 1.66553C10.2914 1.64355 10.814 1.72754 11.3042 1.91211C11.7944 2.09717 12.2421 2.37939 12.6204 2.74219C12.9986 3.10449 13.2996 3.54004 13.5052 4.02197C13.7109 4.50391 13.8168 5.02246 13.8168 5.54639C13.8168 6.07031 13.7109 6.58887 13.5052 7.07031C13.2996 7.55225 12.9986 7.98779 12.6204 8.3501C12.2421 8.71289 11.7944 8.99512 11.3042 9.18018C10.814 9.36523 10.2914 9.44873 9.76801 9.42676C8.7226 9.42676 7.71753 9.02295 6.96228 8.30029C6.20703 7.57764 5.75983 6.59131 5.71399 5.54688L5.71301 5.54688C5.72137 5.0249 5.83331 4.50977 6.04224 4.03125ZM6.58197 21.6235C4.49701 21.5688 1.716 21.7896 1.716 18.2417C1.76947 16.1396 2.65216 14.1436 4.17151 12.6899C5.6908 11.2358 7.72345 10.4419 9.82599 10.4805C11.9285 10.4419 13.9612 11.2358 15.4805 12.6899C16.9998 14.1436 17.8825 16.1396 17.936 18.2417C17.878 21.1206 16.372 21.6206 13.012 21.6206L13.013 21.6235L6.58197 21.6235Z" stroke="#A6A6A6" stroke-opacity="1.000000" stroke-width="1.000000"/>
</svg>
