<svg width="28.231934" height="27.623535" viewBox="0 0 28.2319 27.6235" fill="none" xmlns="http://www.w3.org/2000/svg" xmlns:xlink="http://www.w3.org/1999/xlink">
	<desc>
			Created with Pixso.
	</desc>
	<defs/>
	<path id="Vector" d="M1.56836 12.2773L10.979 12.2773C11.395 12.2773 11.7939 12.1152 12.0884 11.8276C12.3823 11.54 12.5474 11.1494 12.5474 10.7427L12.5474 1.53467C12.5474 1.12744 12.3823 0.737305 12.0884 0.449707C11.7939 0.161621 11.395 0 10.979 0L1.56836 0C1.15234 0 0.753418 0.161621 0.459473 0.449707C0.165039 0.737305 0 1.12744 0 1.53467L0 10.7427C0 11.1494 0.165039 11.54 0.459473 11.8276C0.753418 12.1152 1.15234 12.2773 1.56836 12.2773ZM17.2529 12.2773L26.6636 12.2773C27.0796 12.2773 27.4785 12.1152 27.7725 11.8276C28.0669 11.54 28.2319 11.1494 28.2319 10.7427L28.2319 1.53467C28.2319 1.12744 28.0669 0.737305 27.7725 0.449707C27.4785 0.161621 27.0796 0 26.6636 0L17.2529 0C16.8369 0 16.438 0.161621 16.144 0.449707C15.8496 0.737305 15.6846 1.12744 15.6846 1.53467L15.6846 10.7427C15.6846 11.1494 15.8496 11.54 16.144 11.8276C16.438 12.1152 16.8369 12.2773 17.2529 12.2773ZM1.56836 27.6235L10.979 27.6235C11.395 27.6235 11.7939 27.4619 12.0884 27.1743C12.3823 26.8862 12.5474 26.4961 12.5474 26.0889L12.5474 16.8809C12.5474 16.4741 12.3823 16.0835 12.0884 15.7959C11.7939 15.5083 11.395 15.3467 10.979 15.3467L1.56836 15.3467C1.15234 15.3467 0.753418 15.5083 0.459473 15.7959C0.165039 16.0835 0 16.4741 0 16.8809L0 26.0889C0 26.4961 0.165039 26.8862 0.459473 27.1743C0.753418 27.4619 1.15234 27.6235 1.56836 27.6235ZM21.9585 27.6235C25.4185 27.6235 28.2319 24.8706 28.2319 21.4849C28.2319 18.0996 25.4185 15.3467 21.9585 15.3467C18.498 15.3467 15.6846 18.0996 15.6846 21.4849C15.6846 24.8706 18.498 27.6235 21.9585 27.6235Z" fill="#545454" fill-opacity="1.000000" fill-rule="nonzero"/>
</svg>
