<svg width="24.044296" height="24.044434" viewBox="0 0 24.0443 24.0444" fill="none" xmlns="http://www.w3.org/2000/svg" xmlns:xlink="http://www.w3.org/1999/xlink">
	<desc>
			Created with Pixso.
	</desc>
	<defs/>
	<path id="fi-rr-search" d="M23.739 22.3252L17.77 16.356C19.3966 14.3667 20.1964 11.8281 20.0039 9.26562C19.8113 6.70312 18.6412 4.3125 16.7356 2.58838C14.83 0.864746 12.3346 -0.0610352 9.76565 0.00292969C7.1967 0.0673828 4.75071 1.1167 2.93362 2.93359C1.11653 4.75049 0.0673637 7.19678 0.00313187 9.76562C-0.0611 12.3345 0.864517 14.8301 2.58853 16.7354C4.31254 18.6411 6.70304 19.8115 9.26557 20.0039C11.8281 20.1963 14.3666 19.3965 16.356 17.77L22.325 23.7388C22.4173 23.8345 22.5276 23.9106 22.6496 23.9629C22.7716 24.0156 22.9028 24.043 23.0356 24.0444C23.1684 24.0454 23.3001 24.02 23.423 23.9697C23.5459 23.9194 23.6575 23.8452 23.7514 23.7515C23.8453 23.6577 23.9195 23.5459 23.9698 23.4229C24.0201 23.3003 24.0454 23.1685 24.0443 23.0356C24.0431 22.9028 24.0155 22.7715 23.9631 22.6494C23.9107 22.5278 23.8345 22.4175 23.739 22.3252ZM10.032 18.0322C8.44976 18.0322 6.90304 17.563 5.58745 16.6836C4.27185 15.8047 3.24647 14.5552 2.64097 13.0933C2.03547 11.6318 1.87704 10.0229 2.18573 8.47119C2.49441 6.91943 3.25633 5.49414 4.37515 4.375C5.49397 3.25635 6.91944 2.49463 8.47129 2.18555C10.0231 1.87695 11.6317 2.03564 13.0935 2.64111C14.5553 3.24658 15.8047 4.27197 16.6838 5.5874C17.5628 6.90283 18.032 8.44971 18.032 10.0322C18.032 12.1538 17.1892 14.1885 15.6889 15.689C14.1886 17.189 12.1537 18.0322 10.032 18.0322Z" fill="#009398" fill-opacity="1.000000" fill-rule="nonzero"/>
</svg>
